<svg width="133" height="147" viewBox="0 0 133 147" fill="none" xmlns="http://www.w3.org/2000/svg">
<path d="M128.844 110.25H16.625V22.9688C16.625 20.4307 14.7651 18.375 12.4688 18.375H4.15625C1.85992 18.375 0 20.4307 0 22.9688V119.438C0 124.511 3.72244 128.625 8.3125 128.625H128.844C131.14 128.625 133 126.569 133 124.031V114.844C133 112.306 131.14 110.25 128.844 110.25ZM120.531 27.5625H89.8633C84.3095 27.5625 81.5274 34.9843 85.4551 39.3254L93.8715 48.6277L74.8125 69.6958L55.7535 48.6306C52.5064 45.0417 47.2436 45.0417 43.9991 48.6306L26.1558 68.3521C24.5323 70.1466 24.5323 73.055 26.1558 74.8494L32.0317 81.3438C33.6552 83.1383 36.2867 83.1383 37.9102 81.3438L49.875 68.1167L68.934 89.1819C72.1811 92.7708 77.4439 92.7708 80.6884 89.1819L105.626 61.6194L114.042 70.9218C117.97 75.2629 124.685 72.1879 124.685 66.0495V32.1562C124.687 29.6182 122.828 27.5625 120.531 27.5625Z" fill="#43C650"/>
</svg>
