<svg width="147" height="147" viewBox="0 0 147 147" fill="none" xmlns="http://www.w3.org/2000/svg">
<path d="M73.5 12.4605C38.706 12.4605 10.4915 39.7934 10.4915 73.5C10.4915 107.207 38.706 134.539 73.5 134.539C108.294 134.539 136.508 107.207 136.508 73.5C136.508 39.7934 108.294 12.4605 73.5 12.4605ZM44.6335 50.6174C44.6335 35.1996 57.5849 22.6529 73.5 22.6529C89.4151 22.6529 102.367 35.1996 102.367 50.6174V58.2545C102.367 59.69 101.211 60.8098 99.7288 60.8098H94.4831C93.0012 60.8098 91.8454 59.69 91.8454 58.2545V50.6174C91.8454 27.0457 55.0954 27.0457 55.0954 50.6174V58.2545C55.0954 59.69 53.9395 60.8098 52.4577 60.8098H47.2119C45.73 60.8098 44.5742 59.69 44.5742 58.2545V50.6174H44.6335ZM115.496 109.102C115.496 111.887 113.125 114.183 110.25 114.183H36.75C33.8752 114.183 31.5042 111.887 31.5042 109.102V68.4182C31.5042 65.6332 33.8752 63.3363 36.75 63.3363H110.25C113.125 63.3363 115.496 65.6332 115.496 68.4182V109.102ZM41.9958 69.6814V107.838C41.9958 108.556 41.4327 109.102 40.6917 109.102H38.054C37.3131 109.102 36.75 108.556 36.75 107.838V69.6814C36.75 68.9637 37.3131 68.4182 38.054 68.4182H40.6917C41.4327 68.4182 41.9958 68.9637 41.9958 69.6814ZM83.9915 83.6637C83.9915 87.3961 81.8577 90.6691 78.7458 92.3918V101.464C78.7458 102.9 77.5899 104.02 76.1081 104.02H70.8623C69.3804 104.02 68.2246 102.9 68.2246 101.464V92.3918C65.1127 90.6404 62.9788 87.3961 62.9788 83.6637C62.9788 78.0076 67.6615 73.5 73.4704 73.5C79.2792 73.5 83.9915 78.0363 83.9915 83.6637V83.6637ZM73.5 2.29688C32.8972 2.29688 0 34.166 0 73.5C0 112.834 32.8972 144.703 73.5 144.703C114.103 144.703 147 112.834 147 73.5C147 34.166 114.103 2.29688 73.5 2.29688ZM73.5 139.621C35.8609 139.621 5.24577 109.963 5.24577 73.5C5.24577 37.0371 35.8609 7.37871 73.5 7.37871C111.139 7.37871 141.754 37.0371 141.754 73.5C141.754 109.963 111.139 139.621 73.5 139.621Z" fill="#43C650"/>
</svg>
