<svg width="132" height="147" viewBox="0 0 132 147" fill="none" xmlns="http://www.w3.org/2000/svg">
<path d="M64.1667 39.0469V0H6.875C3.0651 0 0 3.07207 0 6.89062V140.109C0 143.928 3.0651 147 6.875 147H103.125C106.935 147 110 143.928 110 140.109V45.9375H71.0417C67.2604 45.9375 64.1667 42.8367 64.1667 39.0469ZM82.838 101.065H64.1667V124.034C64.1667 126.572 62.1156 128.628 59.5833 128.628H50.4167C47.8844 128.628 45.8333 126.572 45.8333 124.034V101.065H27.162C23.0714 101.065 21.0289 96.1012 23.9336 93.2101L51.5539 65.7337C53.4589 63.8359 56.5354 63.8359 58.4404 65.7337L86.0607 93.2101C88.9682 96.1012 86.9286 101.065 82.838 101.065ZM107.995 30.1465L79.9505 2.00977C78.6615 0.717773 76.9141 0 75.0807 0H73.3333V36.75H110V34.9986C110 33.1898 109.284 31.4385 107.995 30.1465Z" fill="#44C651"/>
</svg>
