<svg width="132" height="147" viewBox="0 0 132 147" fill="none" xmlns="http://www.w3.org/2000/svg">
<path d="M8.25 131.759C8.25 136.974 11.9367 141.188 16.5 141.188H57.75V94.0446H8.25V131.759ZM74.25 141.188H115.5C120.063 141.188 123.75 136.974 123.75 131.759V94.0446H74.25V141.188ZM123.75 46.9018H112.896C114.495 43.3366 115.5 39.3884 115.5 35.1161C115.5 20.8259 105.316 9.1875 92.8125 9.1875C82.0875 9.1875 75.1523 15.4634 66.2578 29.3116C57.3633 15.4634 50.4281 9.1875 39.7031 9.1875C27.1992 9.1875 17.0156 20.8259 17.0156 35.1161C17.0156 39.3884 17.9953 43.3366 19.6195 46.9018H8.25C3.68672 46.9018 0 51.1152 0 56.3304V79.9018C0 82.4946 1.85625 84.6161 4.125 84.6161H127.875C130.144 84.6161 132 82.4946 132 79.9018V56.3304C132 51.1152 128.313 46.9018 123.75 46.9018ZM39.6773 46.9018C33.9797 46.9018 29.3648 41.6277 29.3648 35.1161C29.3648 28.6045 33.9797 23.3304 39.6773 23.3304C44.8078 23.3304 48.5977 24.3027 61.875 46.9018H39.6773ZM92.8125 46.9018H70.6148C83.8664 24.3616 87.5531 23.3304 92.8125 23.3304C98.5102 23.3304 103.125 28.6045 103.125 35.1161C103.125 41.6277 98.5102 46.9018 92.8125 46.9018Z" fill="#43C650"/>
</svg>
