<svg width="132" height="147" viewBox="0 0 132 147" fill="none" xmlns="http://www.w3.org/2000/svg">
<path d="M119.625 128.625H12.375C5.54039 128.625 0 122.455 0 114.844V32.1562C0 24.545 5.54039 18.375 12.375 18.375H119.625C126.46 18.375 132 24.545 132 32.1562V114.844C132 122.455 126.46 128.625 119.625 128.625ZM28.875 34.4531C20.9014 34.4531 14.4375 41.6515 14.4375 50.5312C14.4375 59.411 20.9014 66.6094 28.875 66.6094C36.8486 66.6094 43.3125 59.411 43.3125 50.5312C43.3125 41.6515 36.8486 34.4531 28.875 34.4531ZM16.5 110.25H115.5V78.0938L92.9375 52.9674C91.7294 51.622 89.7706 51.622 88.5622 52.9674L53.625 91.875L39.3125 75.9361C38.1044 74.5907 36.1456 74.5907 34.9372 75.9361L16.5 96.4688V110.25Z" fill="#43C650"/>
</svg>
