<svg width="147" height="147" viewBox="0 0 147 147" fill="none" xmlns="http://www.w3.org/2000/svg">
<g clip-path="url(#clip0)">
<path d="M145.038 5.48379C144.854 4.62461 144.425 3.83699 143.803 3.21561C143.182 2.59424 142.394 2.16554 141.535 1.98105C132.287 0 125.053 0 117.844 0C88.2068 0 70.43 15.8484 57.1649 36.75H27.24C24.6844 36.7522 22.1796 37.4645 20.0055 38.8076C17.8314 40.1506 16.0736 42.0715 14.9283 44.3555L0.735574 72.7219C0.211437 73.7728 -0.0353999 74.94 0.0184902 76.113C0.0723803 77.286 0.425209 78.4258 1.04349 79.4241C1.66177 80.4225 2.525 81.2463 3.55123 81.8175C4.57747 82.3886 5.73268 82.6881 6.90721 82.6875H36.7086L30.2555 89.1388C28.5325 90.8618 27.5645 93.1984 27.5645 95.6347C27.5645 98.071 28.5325 100.408 30.2555 102.131L44.8733 116.747C45.7267 117.601 46.7399 118.278 47.855 118.739C48.9701 119.201 50.1653 119.439 51.3723 119.439C52.5793 119.439 53.7745 119.201 54.8896 118.739C56.0047 118.278 57.0179 117.601 57.8713 116.747L64.3244 110.296V140.109C64.3241 141.283 64.6237 142.438 65.1948 143.463C65.7659 144.489 66.5897 145.352 67.5879 145.97C68.5861 146.588 69.7257 146.941 70.8986 146.995C72.0715 147.049 73.2388 146.803 74.2898 146.279L102.635 132.099C104.924 130.956 106.848 129.198 108.192 127.022C109.537 124.847 110.248 122.339 110.246 119.782V89.8049C131.092 76.5118 147.005 58.6823 147.005 29.199C147.034 21.9639 147.034 14.7287 145.038 5.48379V5.48379ZM110.274 48.2344C108.002 48.2344 105.781 47.5608 103.892 46.2989C102.003 45.037 100.531 43.2434 99.6612 41.1449C98.7918 39.0464 98.5643 36.7373 99.0075 34.5095C99.4508 32.2818 100.545 30.2354 102.151 28.6293C103.758 27.0232 105.805 25.9294 108.033 25.4863C110.262 25.0432 112.571 25.2706 114.67 26.1398C116.769 27.009 118.563 28.481 119.826 30.3696C121.088 32.2582 121.762 34.4786 121.762 36.75C121.762 39.7958 120.551 42.7169 118.397 44.8707C116.243 47.0244 113.321 48.2344 110.274 48.2344V48.2344Z" fill="#43C650"/>
</g>
<defs>
<clipPath id="clip0">
<rect width="147" height="147" fill="white"/>
</clipPath>
</defs>
</svg>
