<svg width="104" height="25" viewBox="0 0 104 25" fill="none" xmlns="http://www.w3.org/2000/svg">
<g clip-path="url(#clip0_1501_64)">
<path d="M27.998 20C27.3991 20 27.0247 19.9642 26.875 19.8926C26.7318 19.821 26.6536 19.6354 26.6406 19.3359L26.2207 4.30664C26.2142 4.07878 26.25 3.90951 26.3281 3.79883C26.4128 3.68164 26.582 3.60352 26.8359 3.56445C27.0964 3.51888 27.4837 3.49609 27.998 3.49609C28.0892 3.49609 28.1706 3.49609 28.2422 3.49609H30.4688C31.3607 3.49609 32.1615 3.60677 32.8711 3.82812C33.5872 4.04297 34.1504 4.38477 34.5605 4.85352C34.9772 5.31576 35.1758 5.92448 35.1562 6.67969L35.0977 9.38477C35.0846 9.93164 34.9154 10.4883 34.5898 11.0547C34.2708 11.6146 33.7109 12.0443 32.9102 12.3438C33.5482 12.5977 34.0527 12.959 34.4238 13.4277C34.7949 13.8965 34.9674 14.4792 34.9414 15.1758L34.8828 16.9043C34.8698 17.3991 34.7266 17.8841 34.4531 18.3594C34.1862 18.8346 33.7402 19.2285 33.1152 19.541C32.4902 19.847 31.6341 20 30.5469 20H28.1738C28.1217 20 28.0632 20 27.998 20ZM30.1562 5.18555H29.7461L29.5703 11.4844H30.2637C30.8887 11.4844 31.3151 11.3835 31.543 11.1816C31.7708 10.9733 31.875 10.5957 31.8555 10.0488L31.7188 6.36719C31.6992 5.86589 31.5885 5.54362 31.3867 5.40039C31.1914 5.25716 30.7812 5.18555 30.1562 5.18555ZM30.3125 13.1934H29.5215L29.375 18.4082H30.4102C31.0417 18.4082 31.4681 18.304 31.6895 18.0957C31.9173 17.8874 32.0247 17.5098 32.0117 16.9629L31.9531 14.4238C31.9466 13.916 31.8262 13.584 31.5918 13.4277C31.3639 13.2715 30.9375 13.1934 30.3125 13.1934ZM41.3867 20.1172C40.7292 20.1172 40.1009 20.0326 39.502 19.8633C38.9095 19.6875 38.418 19.3945 38.0273 18.9844C37.6432 18.5742 37.4382 18.0143 37.4121 17.3047L37.1875 11.1133C37.1615 10.4167 37.3535 9.85026 37.7637 9.41406C38.1738 8.97786 38.7077 8.65885 39.3652 8.45703C40.0228 8.2487 40.7129 8.14453 41.4355 8.14453C42.1257 8.14453 42.7865 8.2487 43.418 8.45703C44.0495 8.65885 44.5605 8.97786 44.9512 9.41406C45.3418 9.85026 45.5208 10.4167 45.4883 11.1133L45.3418 14.7168C45.3353 14.9577 45.2474 15.1107 45.0781 15.1758C44.9154 15.2409 44.541 15.2734 43.9551 15.2734H40.1562L40.0879 17.3828C40.0749 17.8776 40.1823 18.2227 40.4102 18.418C40.638 18.6133 40.9603 18.7109 41.377 18.7109C41.8001 18.7109 42.1061 18.6198 42.2949 18.4375C42.4902 18.2552 42.5879 17.9329 42.5879 17.4707V17.168C42.5879 16.9206 42.666 16.7546 42.8223 16.6699C42.985 16.5788 43.3561 16.5332 43.9355 16.5332C44.515 16.5332 44.8796 16.5755 45.0293 16.6602C45.1855 16.7448 45.2637 16.9108 45.2637 17.1582V17.5879C45.2637 18.2715 45.0749 18.7956 44.6973 19.1602C44.3262 19.5247 43.8444 19.7754 43.252 19.9121C42.6595 20.0488 42.0378 20.1172 41.3867 20.1172ZM40.2832 10.9473L40.1953 13.8086H42.5879L42.4902 10.9473C42.4707 10.3939 42.3633 10.0423 42.168 9.89258C41.9727 9.74284 41.7285 9.66797 41.4355 9.66797C41.1165 9.66797 40.8464 9.74284 40.625 9.89258C40.4102 10.0423 40.2962 10.3939 40.2832 10.9473ZM51.7383 20.1172C51.0807 20.1172 50.4525 20.0326 49.8535 19.8633C49.2611 19.6875 48.7695 19.3945 48.3789 18.9844C47.9948 18.5742 47.7897 18.0143 47.7637 17.3047L47.5391 11.1133C47.513 10.4167 47.7051 9.85026 48.1152 9.41406C48.5254 8.97786 49.0592 8.65885 49.7168 8.45703C50.3743 8.2487 51.0645 8.14453 51.7871 8.14453C52.4772 8.14453 53.138 8.2487 53.7695 8.45703C54.401 8.65885 54.9121 8.97786 55.3027 9.41406C55.6934 9.85026 55.8724 10.4167 55.8398 11.1133L55.6934 14.7168C55.6868 14.9577 55.599 15.1107 55.4297 15.1758C55.2669 15.2409 54.8926 15.2734 54.3066 15.2734H50.5078L50.4395 17.3828C50.4264 17.8776 50.5339 18.2227 50.7617 18.418C50.9896 18.6133 51.3118 18.7109 51.7285 18.7109C52.1517 18.7109 52.4577 18.6198 52.6465 18.4375C52.8418 18.2552 52.9395 17.9329 52.9395 17.4707V17.168C52.9395 16.9206 53.0176 16.7546 53.1738 16.6699C53.3366 16.5788 53.7077 16.5332 54.2871 16.5332C54.8665 16.5332 55.2311 16.5755 55.3809 16.6602C55.5371 16.7448 55.6152 16.9108 55.6152 17.1582V17.5879C55.6152 18.2715 55.4264 18.7956 55.0488 19.1602C54.6777 19.5247 54.196 19.7754 53.6035 19.9121C53.0111 20.0488 52.3893 20.1172 51.7383 20.1172ZM50.6348 10.9473L50.5469 13.8086H52.9395L52.8418 10.9473C52.8223 10.3939 52.7148 10.0423 52.5195 9.89258C52.3242 9.74284 52.0801 9.66797 51.7871 9.66797C51.4681 9.66797 51.1979 9.74284 50.9766 9.89258C50.7617 10.0423 50.6478 10.3939 50.6348 10.9473ZM63.2031 20C62.6953 20 62.3438 19.9609 62.1484 19.8828C61.9531 19.7982 61.8848 19.5833 61.9434 19.2383L64.5312 4.32617C64.5703 4.07878 64.6452 3.89323 64.7559 3.76953C64.8665 3.63932 65.0879 3.55143 65.4199 3.50586C65.7585 3.46029 66.2826 3.4375 66.9922 3.4375C67.7018 3.4375 68.2227 3.46029 68.5547 3.50586C68.8867 3.55143 69.1081 3.63932 69.2188 3.76953C69.3294 3.89323 69.4043 4.07878 69.4434 4.32617L72.0312 19.2383C72.0898 19.5833 72.0215 19.7982 71.8262 19.8828C71.6374 19.9609 71.2858 20 70.7715 20C70.3613 20 70.0521 19.987 69.8438 19.9609C69.6419 19.9284 69.502 19.8568 69.4238 19.7461C69.3457 19.6354 69.2871 19.4661 69.248 19.2383L68.8477 16.9043H65.127L64.7266 19.2383C64.6875 19.4661 64.6289 19.6354 64.5508 19.7461C64.4727 19.8568 64.3327 19.9284 64.1309 19.9609C63.929 19.987 63.6198 20 63.2031 20ZM66.9434 6.38672L65.4492 15.0488H68.5254L67.0312 6.38672H66.9434ZM75.2441 24.1016C74.6973 24.1016 74.3522 24.069 74.209 24.0039C74.0658 23.9388 73.9909 23.7858 73.9844 23.5449L73.6621 8.97461C73.6556 8.69466 73.7337 8.50586 73.8965 8.4082C74.0658 8.31055 74.4824 8.26172 75.1465 8.26172C75.8105 8.26172 76.2272 8.31055 76.3965 8.4082C76.5658 8.50586 76.6439 8.69466 76.6309 8.97461L76.6211 9.31641C76.9336 9.00391 77.2884 8.73047 77.6855 8.49609C78.0827 8.26172 78.5319 8.14453 79.0332 8.14453C79.9447 8.14453 80.6771 8.44727 81.2305 9.05273C81.7839 9.6582 82.0443 10.4329 82.0117 11.377L81.8359 16.875C81.7969 18.0534 81.5299 18.89 81.0352 19.3848C80.5469 19.873 79.8828 20.1172 79.043 20.1172C78.5026 20.1172 78.0306 20.0293 77.627 19.8535C77.2233 19.6712 76.8848 19.4694 76.6113 19.248L76.5137 23.5449C76.5072 23.7858 76.429 23.9388 76.2793 24.0039C76.1296 24.069 75.7845 24.1016 75.2441 24.1016ZM77.8906 10.166C77.6953 10.166 77.5 10.2083 77.3047 10.293C77.1159 10.3711 76.9466 10.4622 76.7969 10.5664L76.6309 17.959C76.7806 18.0697 76.9564 18.1673 77.1582 18.252C77.36 18.3301 77.5814 18.3691 77.8223 18.3691C78.2389 18.3691 78.5645 18.2389 78.7988 17.9785C79.0397 17.7181 79.1536 17.3503 79.1406 16.875L78.9941 11.377C78.9876 10.9277 78.8737 10.6152 78.6523 10.4395C78.431 10.2572 78.1771 10.166 77.8906 10.166ZM85.8496 24.1016C85.3027 24.1016 84.9577 24.069 84.8145 24.0039C84.6712 23.9388 84.5964 23.7858 84.5898 23.5449L84.2676 8.97461C84.2611 8.69466 84.3392 8.50586 84.502 8.4082C84.6712 8.31055 85.0879 8.26172 85.752 8.26172C86.416 8.26172 86.8327 8.31055 87.002 8.4082C87.1712 8.50586 87.2493 8.69466 87.2363 8.97461L87.2266 9.31641C87.5391 9.00391 87.8939 8.73047 88.291 8.49609C88.6882 8.26172 89.1374 8.14453 89.6387 8.14453C90.5501 8.14453 91.2826 8.44727 91.8359 9.05273C92.3893 9.6582 92.6497 10.4329 92.6172 11.377L92.4414 16.875C92.4023 18.0534 92.1354 18.89 91.6406 19.3848C91.1523 19.873 90.4883 20.1172 89.6484 20.1172C89.1081 20.1172 88.6361 20.0293 88.2324 19.8535C87.8288 19.6712 87.4902 19.4694 87.2168 19.248L87.1191 23.5449C87.1126 23.7858 87.0345 23.9388 86.8848 24.0039C86.735 24.069 86.39 24.1016 85.8496 24.1016ZM88.4961 10.166C88.3008 10.166 88.1055 10.2083 87.9102 10.293C87.7214 10.3711 87.5521 10.4622 87.4023 10.5664L87.2363 17.959C87.3861 18.0697 87.5618 18.1673 87.7637 18.252C87.9655 18.3301 88.1868 18.3691 88.4277 18.3691C88.8444 18.3691 89.1699 18.2389 89.4043 17.9785C89.6452 17.7181 89.7591 17.3503 89.7461 16.875L89.5996 11.377C89.5931 10.9277 89.4792 10.6152 89.2578 10.4395C89.0365 10.2572 88.7826 10.166 88.4961 10.166ZM98.8867 20.1172C98.4115 20.1172 97.9362 20.0781 97.4609 20C96.9922 19.9284 96.5592 19.7982 96.1621 19.6094C95.7715 19.4206 95.4557 19.1602 95.2148 18.8281C94.9805 18.4961 94.8633 18.0729 94.8633 17.5586V17.1582C94.8633 16.9108 94.9414 16.7448 95.0977 16.6602C95.2604 16.5755 95.6283 16.5332 96.2012 16.5332C96.7806 16.5332 97.1484 16.5788 97.3047 16.6699C97.4674 16.7546 97.5488 16.9206 97.5488 17.168V17.6465C97.5488 18.0436 97.666 18.3203 97.9004 18.4766C98.1348 18.6328 98.4603 18.7109 98.877 18.7109C99.3001 18.7109 99.5931 18.623 99.7559 18.4473C99.9251 18.265 100.01 17.9655 100.01 17.5488V17.0703C100.01 16.7448 99.9251 16.5039 99.7559 16.3477C99.5866 16.1914 99.3229 16.0514 98.9648 15.9277L96.0742 14.9121C95.6185 14.7493 95.2767 14.4824 95.0488 14.1113C94.821 13.7337 94.6973 13.278 94.6777 12.7441L94.6191 11.0352C94.5931 10.3385 94.7819 9.77865 95.1855 9.35547C95.5892 8.93229 96.1165 8.6263 96.7676 8.4375C97.4251 8.24219 98.1152 8.14453 98.8379 8.14453C99.5475 8.14453 100.218 8.22917 100.85 8.39844C101.488 8.5612 102.002 8.84115 102.393 9.23828C102.783 9.63542 102.965 10.1823 102.939 10.8789L102.861 12.9297C102.855 13.1706 102.767 13.3236 102.598 13.3887C102.435 13.4538 102.061 13.4863 101.475 13.4863C100.843 13.4863 100.439 13.4538 100.264 13.3887C100.094 13.3236 100.007 13.1706 100 12.9297L99.9316 10.7129C99.9186 10.2767 99.8145 9.99349 99.6191 9.86328C99.4238 9.73307 99.1634 9.66797 98.8379 9.66797C98.5189 9.66797 98.2552 9.73633 98.0469 9.87305C97.8451 10.0033 97.7376 10.2799 97.7246 10.7031L97.6562 12.8223C97.6367 13.4473 97.946 13.8672 98.584 14.082L101.045 14.9609C101.702 15.1953 102.148 15.4818 102.383 15.8203C102.617 16.1589 102.718 16.6374 102.686 17.2559L102.666 17.7051C102.64 18.304 102.448 18.7793 102.09 19.1309C101.738 19.4824 101.279 19.7363 100.713 19.8926C100.146 20.0423 99.5378 20.1172 98.8867 20.1172Z" fill="#404040"/>
<path fill-rule="evenodd" clip-rule="evenodd" d="M4.05562 0C3.34146 0 2.68148 0.38081 2.32408 0.999111L0.578548 4.01889C0.220598 4.63814 0.220598 5.40141 0.578548 6.02067L2.32409 9.04045C2.68148 9.65875 3.34146 10.0396 4.05562 10.0396H7.5508C8.26496 10.0396 8.92494 9.65875 9.28234 9.04045L11.0279 6.02067C11.3858 5.40141 11.3858 4.63814 11.0279 4.01889L9.28234 0.99911C8.92494 0.380809 8.26497 0 7.5508 0H4.05562ZM5.14456 2.07076C4.49336 2.07076 3.88294 2.3878 3.50842 2.92051L2.69092 4.08334C2.2844 4.66158 2.21329 5.41146 2.50388 6.05581L3.14623 7.48015C3.46954 8.19705 4.18298 8.65794 4.96941 8.65794H6.61088C7.40001 8.65794 8.11536 8.19392 8.4371 7.47336L9.0722 6.05099C9.35797 5.41101 9.28786 4.66813 8.88742 4.0929L8.07656 2.9281C7.70265 2.39097 7.08959 2.07076 6.43513 2.07076H5.14456Z" fill="#FF8100"/>
<path fill-rule="evenodd" clip-rule="evenodd" d="M14.5522 5.9267C13.838 5.9267 13.1781 6.30751 12.8207 6.92581L11.0751 9.94559C10.7172 10.5648 10.7172 11.3281 11.0751 11.9474L12.8207 14.9671C13.1781 15.5854 13.838 15.9663 14.5522 15.9663H18.0474C18.7615 15.9663 19.4215 15.5854 19.7789 14.9671L21.5245 11.9474C21.8824 11.3281 21.8824 10.5648 21.5245 9.94559L19.7789 6.92581C19.4215 6.30751 18.7615 5.9267 18.0474 5.9267H14.5522ZM15.6411 7.99746C14.9899 7.99746 14.3795 8.31449 14.005 8.84721L13.1875 10.01C12.781 10.5883 12.7099 11.3382 13.0005 11.9825L13.6428 13.4068C13.9661 14.1237 14.6796 14.5846 15.466 14.5846H17.1075C17.8966 14.5846 18.6119 14.1206 18.9337 13.4001L19.5688 11.9777C19.8545 11.3377 19.7844 10.5948 19.384 10.0196L18.5731 8.8548C18.1992 8.31767 17.5862 7.99746 16.9317 7.99746H15.6411Z" fill="#FF8100"/>
<path fill-rule="evenodd" clip-rule="evenodd" d="M4.05562 11.9604C3.34146 11.9604 2.68148 12.3413 2.32408 12.9596L0.578548 15.9793C0.220598 16.5986 0.220598 17.3619 0.578548 17.9811L2.32409 21.0009C2.68148 21.6192 3.34146 22 4.05562 22H7.5508C8.26496 22 8.92494 21.6192 9.28234 21.0009L11.0279 17.9811C11.3858 17.3619 11.3858 16.5986 11.0279 15.9793L9.28234 12.9596C8.92494 12.3413 8.26497 11.9604 7.5508 11.9604H4.05562ZM5.14456 14.0312C4.49336 14.0312 3.88294 14.3482 3.50842 14.881L2.69092 16.0438C2.2844 16.622 2.21329 17.3719 2.50388 18.0163L3.14623 19.4406C3.46954 20.1575 4.18298 20.6184 4.96941 20.6184H6.61088C7.40001 20.6184 8.11536 20.1544 8.4371 19.4338L9.0722 18.0114C9.35797 17.3715 9.28786 16.6286 8.88742 16.0534L8.07656 14.8886C7.70265 14.3514 7.08959 14.0312 6.43513 14.0312H5.14456Z" fill="#FF8100"/>
</g>
<defs>
<clipPath id="clip0_1501_64">
<rect width="104" height="25" fill="white"/>
</clipPath>
</defs>
</svg>
