<svg width="173" height="40" viewBox="0 0 173 40" fill="none" xmlns="http://www.w3.org/2000/svg">
<g clip-path="url(#clip0)">
<path d="M53.1387 29H49.0371V9.09375H53.1387V29ZM71.5273 12.416H65.4297V29H61.3281V12.416H55.3125V9.09375H71.5273V12.416ZM86.8945 18.0625L91.0371 9.09375H95.5215L88.9863 21.7812V29H84.8164V21.7812L78.2812 9.09375H82.7793L86.8945 18.0625ZM104.777 29C104.595 28.6445 104.463 28.2025 104.381 27.6738C103.424 28.7402 102.18 29.2734 100.648 29.2734C99.1992 29.2734 97.9961 28.8542 97.0391 28.0156C96.0911 27.1771 95.6172 26.1198 95.6172 24.8438C95.6172 23.276 96.196 22.0729 97.3535 21.2344C98.5202 20.3958 100.202 19.972 102.398 19.9629H104.217V19.1152C104.217 18.4316 104.039 17.8848 103.684 17.4746C103.337 17.0645 102.786 16.8594 102.029 16.8594C101.364 16.8594 100.84 17.0189 100.457 17.3379C100.083 17.6569 99.8965 18.0944 99.8965 18.6504H95.9453C95.9453 17.7936 96.2096 17.0007 96.7383 16.2715C97.2669 15.5423 98.0143 14.9727 98.9805 14.5625C99.9466 14.1432 101.031 13.9336 102.234 13.9336C104.057 13.9336 105.502 14.3939 106.568 15.3145C107.644 16.2259 108.182 17.5111 108.182 19.1699V25.582C108.191 26.9857 108.387 28.0475 108.77 28.7676V29H104.777ZM101.51 26.252C102.093 26.252 102.631 26.1243 103.123 25.8691C103.615 25.6048 103.98 25.2539 104.217 24.8164V22.2734H102.74C100.762 22.2734 99.7096 22.957 99.582 24.3242L99.5684 24.5566C99.5684 25.0488 99.7415 25.4544 100.088 25.7734C100.434 26.0924 100.908 26.252 101.51 26.252ZM116.59 23.0664L115.168 24.4883V29H111.217V8H115.168V19.6348L115.934 18.6504L119.721 14.207H124.465L119.119 20.373L124.93 29H120.391L116.59 23.0664ZM135.033 27.4961C134.058 28.681 132.709 29.2734 130.986 29.2734C129.4 29.2734 128.188 28.8177 127.35 27.9062C126.52 26.9948 126.096 25.6595 126.078 23.9004V14.207H130.029V23.7637C130.029 25.304 130.731 26.0742 132.135 26.0742C133.475 26.0742 134.395 25.6094 134.896 24.6797V14.207H138.861V29H135.143L135.033 27.4961ZM146.572 10.5703V14.207H149.102V17.1055H146.572V24.4883C146.572 25.0352 146.677 25.4271 146.887 25.6641C147.096 25.901 147.497 26.0195 148.09 26.0195C148.527 26.0195 148.915 25.9876 149.252 25.9238V28.918C148.477 29.1549 147.68 29.2734 146.859 29.2734C144.089 29.2734 142.676 27.8743 142.621 25.0762V17.1055H140.461V14.207H142.621V10.5703H146.572ZM155.473 29H151.508V14.207H155.473V29ZM151.275 10.3789C151.275 9.78646 151.471 9.29883 151.863 8.91602C152.264 8.5332 152.807 8.3418 153.49 8.3418C154.165 8.3418 154.702 8.5332 155.104 8.91602C155.505 9.29883 155.705 9.78646 155.705 10.3789C155.705 10.9805 155.5 11.4727 155.09 11.8555C154.689 12.2383 154.156 12.4297 153.49 12.4297C152.825 12.4297 152.287 12.2383 151.877 11.8555C151.476 11.4727 151.275 10.9805 151.275 10.3789ZM167.312 29C167.13 28.6445 166.998 28.2025 166.916 27.6738C165.959 28.7402 164.715 29.2734 163.184 29.2734C161.734 29.2734 160.531 28.8542 159.574 28.0156C158.626 27.1771 158.152 26.1198 158.152 24.8438C158.152 23.276 158.731 22.0729 159.889 21.2344C161.055 20.3958 162.737 19.972 164.934 19.9629H166.752V19.1152C166.752 18.4316 166.574 17.8848 166.219 17.4746C165.872 17.0645 165.321 16.8594 164.564 16.8594C163.899 16.8594 163.375 17.0189 162.992 17.3379C162.618 17.6569 162.432 18.0944 162.432 18.6504H158.48C158.48 17.7936 158.745 17.0007 159.273 16.2715C159.802 15.5423 160.549 14.9727 161.516 14.5625C162.482 14.1432 163.566 13.9336 164.77 13.9336C166.592 13.9336 168.037 14.3939 169.104 15.3145C170.179 16.2259 170.717 17.5111 170.717 19.1699V25.582C170.726 26.9857 170.922 28.0475 171.305 28.7676V29H167.312ZM164.045 26.252C164.628 26.252 165.166 26.1243 165.658 25.8691C166.15 25.6048 166.515 25.2539 166.752 24.8164V22.2734H165.275C163.298 22.2734 162.245 22.957 162.117 24.3242L162.104 24.5566C162.104 25.0488 162.277 25.4544 162.623 25.7734C162.969 26.0924 163.443 26.252 164.045 26.252Z" fill="#323232"/>
<path fill-rule="evenodd" clip-rule="evenodd" d="M5.29101 0L0 9.15344L5.29101 18.3069H15.873L21.164 9.15344L15.873 0H5.29101ZM6.8254 2.6455L3.06878 9.15344L6.8254 15.6614H14.3386L18.0952 9.15344L14.3386 2.6455H6.8254Z" fill="#FF8100"/>
<path fill-rule="evenodd" clip-rule="evenodd" d="M24.127 10.8466L18.836 20L24.127 29.1534H34.709L40 20L34.709 10.8466H24.127ZM25.6614 13.4921L21.9048 20L25.6614 26.5079H33.1746L36.9312 20L33.1746 13.4921H25.6614Z" fill="#FF8100"/>
<path fill-rule="evenodd" clip-rule="evenodd" d="M5.29101 21.799L0 30.9524L5.29101 40.1058H15.873L21.164 30.9524L15.873 21.799H5.29101ZM6.8254 24.4445L3.06878 30.9524L6.8254 37.4603H14.3386L18.0952 30.9524L14.3386 24.4445H6.8254Z" fill="#FF8100"/>
</g>
<defs>
<clipPath id="clip0">
<rect width="173" height="40" fill="white"/>
</clipPath>
</defs>
</svg>
