<svg width="118" height="24" viewBox="0 0 118 24" fill="none" xmlns="http://www.w3.org/2000/svg">
<path d="M32.3848 19H29.4551V4.78125H32.3848V19ZM45.5195 7.1543H41.1641V19H38.2344V7.1543H33.9375V4.78125H45.5195V7.1543ZM56.4961 11.1875L59.4551 4.78125H62.6582L57.9902 13.8438V19H55.0117V13.8438L50.3438 4.78125H53.5566L56.4961 11.1875ZM69.2695 19C69.1393 18.7461 69.0449 18.4303 68.9863 18.0527C68.3027 18.8145 67.4141 19.1953 66.3203 19.1953C65.2852 19.1953 64.4258 18.8958 63.7422 18.2969C63.0651 17.6979 62.7266 16.9427 62.7266 16.0312C62.7266 14.9115 63.14 14.0521 63.9668 13.4531C64.8001 12.8542 66.0013 12.5514 67.5703 12.5449H68.8691V11.9395C68.8691 11.4512 68.7422 11.0605 68.4883 10.7676C68.2409 10.4746 67.847 10.3281 67.3066 10.3281C66.8314 10.3281 66.457 10.4421 66.1836 10.6699C65.9167 10.8978 65.7832 11.2103 65.7832 11.6074H62.9609C62.9609 10.9954 63.1497 10.429 63.5273 9.9082C63.9049 9.38737 64.4388 8.98047 65.1289 8.6875C65.819 8.38802 66.5938 8.23828 67.4531 8.23828C68.7552 8.23828 69.7871 8.56706 70.5488 9.22461C71.3171 9.87565 71.7012 10.7936 71.7012 11.9785V16.5586C71.7077 17.5612 71.8477 18.3197 72.1211 18.834V19H69.2695ZM66.9355 17.0371C67.3522 17.0371 67.7363 16.946 68.0879 16.7637C68.4395 16.5749 68.6999 16.3242 68.8691 16.0117V14.1953H67.8145C66.4017 14.1953 65.6497 14.6836 65.5586 15.6602L65.5488 15.8262C65.5488 16.1777 65.6725 16.4674 65.9199 16.6953C66.1673 16.9232 66.5059 17.0371 66.9355 17.0371ZM77.707 14.7617L76.6914 15.7773V19H73.8691V4H76.6914V12.3105L77.2383 11.6074L79.9434 8.43359H83.332L79.5137 12.8379L83.6641 19H80.4219L77.707 14.7617ZM90.8809 17.9258C90.1842 18.7721 89.2207 19.1953 87.9902 19.1953C86.8574 19.1953 85.9915 18.8698 85.3926 18.2188C84.8001 17.5677 84.4974 16.6139 84.4844 15.3574V8.43359H87.3066V15.2598C87.3066 16.36 87.8079 16.9102 88.8105 16.9102C89.7676 16.9102 90.4251 16.5781 90.7832 15.9141V8.43359H93.6152V19H90.959L90.8809 17.9258ZM99.123 5.83594V8.43359H100.93V10.5039H99.123V15.7773C99.123 16.168 99.1979 16.4479 99.3477 16.6172C99.4974 16.7865 99.7839 16.8711 100.207 16.8711C100.52 16.8711 100.796 16.8483 101.037 16.8027V18.9414C100.484 19.1107 99.9141 19.1953 99.3281 19.1953C97.349 19.1953 96.3398 18.196 96.3008 16.1973V10.5039H94.7578V8.43359H96.3008V5.83594H99.123ZM105.48 19H102.648V8.43359H105.48V19ZM102.482 5.69922C102.482 5.27604 102.622 4.92773 102.902 4.6543C103.189 4.38086 103.576 4.24414 104.064 4.24414C104.546 4.24414 104.93 4.38086 105.217 4.6543C105.503 4.92773 105.646 5.27604 105.646 5.69922C105.646 6.12891 105.5 6.48047 105.207 6.75391C104.921 7.02734 104.54 7.16406 104.064 7.16406C103.589 7.16406 103.205 7.02734 102.912 6.75391C102.626 6.48047 102.482 6.12891 102.482 5.69922ZM113.938 19C113.807 18.7461 113.713 18.4303 113.654 18.0527C112.971 18.8145 112.082 19.1953 110.988 19.1953C109.953 19.1953 109.094 18.8958 108.41 18.2969C107.733 17.6979 107.395 16.9427 107.395 16.0312C107.395 14.9115 107.808 14.0521 108.635 13.4531C109.468 12.8542 110.669 12.5514 112.238 12.5449H113.537V11.9395C113.537 11.4512 113.41 11.0605 113.156 10.7676C112.909 10.4746 112.515 10.3281 111.975 10.3281C111.499 10.3281 111.125 10.4421 110.852 10.6699C110.585 10.8978 110.451 11.2103 110.451 11.6074H107.629C107.629 10.9954 107.818 10.429 108.195 9.9082C108.573 9.38737 109.107 8.98047 109.797 8.6875C110.487 8.38802 111.262 8.23828 112.121 8.23828C113.423 8.23828 114.455 8.56706 115.217 9.22461C115.985 9.87565 116.369 10.7936 116.369 11.9785V16.5586C116.376 17.5612 116.516 18.3197 116.789 18.834V19H113.938ZM111.604 17.0371C112.02 17.0371 112.404 16.946 112.756 16.7637C113.107 16.5749 113.368 16.3242 113.537 16.0117V14.1953H112.482C111.07 14.1953 110.318 14.6836 110.227 15.6602L110.217 15.8262C110.217 16.1777 110.34 16.4674 110.588 16.6953C110.835 16.9232 111.174 17.0371 111.604 17.0371Z" fill="#323232"/>
<path fill-rule="evenodd" clip-rule="evenodd" d="M2.91005 0L0 5.03439L2.91005 10.0688H8.73016L11.6402 5.03439L8.73016 0H2.91005ZM3.75397 1.45503L1.68783 5.03439L3.75397 8.61376H7.88625L9.95238 5.03439L7.88625 1.45503H3.75397Z" fill="#FF8100"/>
<path fill-rule="evenodd" clip-rule="evenodd" d="M13.2698 5.96564L10.3598 11L13.2698 16.0344H19.0899L22 11L19.0899 5.96564H13.2698ZM14.1137 7.42066L12.0476 11L14.1137 14.5794H18.246L20.3122 11L18.246 7.42066H14.1137Z" fill="#FF8100"/>
<path fill-rule="evenodd" clip-rule="evenodd" d="M2.91005 11.9894L0 17.0238L2.91005 22.0582H8.73016L11.6402 17.0238L8.73016 11.9894H2.91005ZM3.75397 13.4445L1.68783 17.0238L3.75397 20.6032H7.88625L9.95238 17.0238L7.88625 13.4445H3.75397Z" fill="#FF8100"/>
</svg>
