<svg width="64" height="64" viewBox="0 0 64 64" fill="none" xmlns="http://www.w3.org/2000/svg">
<path fill-rule="evenodd" clip-rule="evenodd" d="M17.1048 5C15.3326 5 13.6928 5.9381 12.7946 7.4658L8.48999 14.7871C7.57026 16.3514 7.57026 18.2912 8.48999 19.8555L12.7946 27.1767C13.6928 28.7044 15.3326 29.6425 17.1048 29.6425H25.8726C27.6448 29.6425 29.2846 28.7044 30.1828 27.1767L34.4874 19.8555C35.4071 18.2912 35.4071 16.3514 34.4874 14.7871L30.1828 7.4658C29.2846 5.9381 27.6448 5 25.8726 5H17.1048ZM19.8223 10.0828C18.2085 10.0828 16.6939 10.8617 15.7552 12.1744L13.7671 14.9545C12.7243 16.4129 12.5421 18.318 13.2896 19.9476L14.8439 23.336C15.6588 25.1125 17.4341 26.2513 19.3886 26.2513H23.5234C25.4847 26.2513 27.2649 25.1046 28.0759 23.3189L29.6127 19.9352C30.3478 18.3165 30.1682 16.4292 29.1408 14.9782L27.1689 12.1934C26.2316 10.8696 24.7103 10.0828 23.0883 10.0828H19.8223Z" fill="#FF8100"/>
<path fill-rule="evenodd" clip-rule="evenodd" d="M43.3113 19.5472C41.5391 19.5472 39.8993 20.4853 39.0011 22.013L34.6965 29.3343C33.7768 30.8986 33.7768 32.8384 34.6965 34.4027L39.0011 41.724C39.8993 43.2517 41.5391 44.1898 43.3113 44.1898H52.0791C53.8513 44.1898 55.4911 43.2517 56.3893 41.724L60.6939 34.4027C61.6136 32.8384 61.6136 30.8986 60.6939 29.3343L56.3893 22.013C55.4911 20.4853 53.8513 19.5472 52.0791 19.5472H43.3113ZM46.0288 24.63C44.415 24.63 42.9004 25.4089 41.9617 26.7217L39.9737 29.5017C38.9308 30.9601 38.7486 32.8652 39.4961 34.4948L41.0505 37.8833C41.8654 39.6597 43.6407 40.7985 45.5951 40.7985H49.73C51.6912 40.7985 53.4714 39.6519 54.2824 37.8661L55.8192 34.4825C56.5544 32.8638 56.3747 30.9764 55.3473 29.5255L53.3754 26.7406C52.4381 25.4169 50.9169 24.63 49.2948 24.63H46.0288Z" fill="#FF8100"/>
<path fill-rule="evenodd" clip-rule="evenodd" d="M17.1048 34.3575C15.3326 34.3575 13.6928 35.2956 12.7946 36.8233L8.48999 44.1446C7.57026 45.7088 7.57026 47.6487 8.48999 49.213L12.7946 56.5342C13.6928 58.0619 15.3326 59 17.1048 59H25.8726C27.6448 59 29.2846 58.0619 30.1828 56.5342L34.4874 49.213C35.4071 47.6487 35.4071 45.7088 34.4874 44.1446L30.1828 36.8233C29.2846 35.2956 27.6448 34.3575 25.8726 34.3575H17.1048ZM19.8223 39.4403C18.2085 39.4403 16.6939 40.2192 15.7552 41.5319L13.7671 44.312C12.7243 45.7704 12.5421 47.6755 13.2896 49.3051L14.8439 52.6935C15.6588 54.47 17.4341 55.6088 19.3886 55.6088H23.5234C25.4847 55.6088 27.2649 54.4621 28.0759 52.6764L29.6127 49.2927C30.3478 47.674 30.1682 45.7867 29.1408 44.3357L27.1689 41.5509C26.2316 40.2271 24.7103 39.4403 23.0883 39.4403H19.8223Z" fill="#FF8100"/>
</svg>
